<?xml version="1.0" encoding="UTF-8" standalone="no"?>
<!-- Created with Inkscape (http://www.inkscape.org/) -->

<svg
   xmlns:dc="http://purl.org/dc/elements/1.1/"
   xmlns:cc="http://creativecommons.org/ns#"
   xmlns:rdf="http://www.w3.org/1999/02/22-rdf-syntax-ns#"
   xmlns:svg="http://www.w3.org/2000/svg"
   xmlns="http://www.w3.org/2000/svg"
   xmlns:sodipodi="http://sodipodi.sourceforge.net/DTD/sodipodi-0.dtd"
   xmlns:inkscape="http://www.inkscape.org/namespaces/inkscape"
   width="77.869209mm"
   height="41.921989mm"
   viewBox="0 0 77.869206 41.92199"
   version="1.1"
   id="svg1008"
   inkscape:version="0.92.3 (2405546, 2018-03-11)"
   sodipodi:docname="dibujo-footer.svg">
  <defs
     id="defs1002" />
  <sodipodi:namedview
     id="base"
     pagecolor="#ffffff"
     bordercolor="#666666"
     borderopacity="1.0"
     inkscape:pageopacity="0.0"
     inkscape:pageshadow="2"
     inkscape:zoom="1.979899"
     inkscape:cx="209.30771"
     inkscape:cy="20.252561"
     inkscape:document-units="mm"
     inkscape:current-layer="layer1"
     showgrid="false"
     fit-margin-top="0"
     fit-margin-left="0"
     fit-margin-right="0"
     fit-margin-bottom="0"
     inkscape:window-width="1920"
     inkscape:window-height="986"
     inkscape:window-x="-11"
     inkscape:window-y="-11"
     inkscape:window-maximized="1" />
  <metadata
     id="metadata1005">
    <rdf:RDF>
      <cc:Work
         rdf:about="">
        <dc:format>image/svg+xml</dc:format>
        <dc:type
           rdf:resource="http://purl.org/dc/dcmitype/StillImage" />
        <dc:title></dc:title>
      </cc:Work>
    </rdf:RDF>
  </metadata>
  <g
     inkscape:label="Capa 1"
     inkscape:groupmode="layer"
     id="layer1"
     transform="translate(100.33842,-157.39561)">
    <path
       style="fill:#192aae;fill-rule:evenodd;stroke-width:0.99999994"
       d="m 64.023438,28.617188 c -1.988501,14.42808 -97.64722,3.076872 -130.511719,18.513671 l -1.044922,-2.648437 -2.525391,0.917969 31.980469,83.189449 -0.04102,0.0645 -0.322265,1.01172 -0.324219,1.51757 -0.322266,0.84375 v 1.68555 l 0.322266,0.84375 0.646484,0.84375 0.486329,0.67383 0.322265,0.84375 0.324219,1.85351 0.322266,0.84375 0.162109,0.33789 h -0.162109 l -0.484376,0.16797 -1.617187,0.33789 -1.939453,0.33594 -1.457031,0.16797 -0.646485,0.50586 -0.646484,1.34961 -0.808594,1.85547 -0.808594,2.36133 -0.646484,2.35937 -0.484375,1.18164 -0.324219,1.17969 -0.421875,1.75586 -1.52539,-0.99414 -0.666016,-2.08594 -1.46875,-2.08789 -1.335937,-1.39258 -1.466797,-1.11523 -0.800782,-0.97266 -2.001953,-1.11328 v -0.97461 -1.5293 l 0.400391,-0.83593 0.667969,-1.11328 0.40039,-0.97461 0.398438,-1.11329 0.134765,-0.9746 v -0.69532 -0.41797 -0.97265 l -0.134765,-1.53125 -1.066406,-1.11328 -1.601563,-0.97657 -1.333984,-0.55468 -1.736329,-0.2793 -1.86914,-0.13867 h -1.333984 -0.800782 l -1.599609,0.41797 -0.802735,0.83398 -0.40039,0.69727 -0.134766,0.69531 -0.265625,0.55664 -0.40039,0.55664 0.134765,1.53125 v 0.69531 l -0.134765,0.69532 -0.400391,0.69531 -0.533203,0.69726 -0.132813,0.55664 -0.134765,0.41797 0.267578,0.13867 h 1.068359 v 0.55665 l -0.40039,0.41796 0.40039,0.55664 -0.40039,0.41797 0.40039,0.55664 v 0.55664 l -0.267578,0.69532 -0.132812,0.69531 0.265625,0.41797 0.535156,0.13867 h 1.066406 0.667969 l 0.666016,-0.55664 v 0.5566 l 0.667968,1.11328 v 0.41797 0.55664 l -0.667968,0.41797 v 2.64453 1.94922 l -0.666016,2.08594 -2.125,5.125 -0.736328,1.54101 0.04102,-0.5664 0.316407,-2.31836 0.160156,-2.31836 0.158203,-2.31836 -0.318359,-0.16602 -0.316407,-0.33203 -0.318359,-0.33008 -0.476562,-0.16601 -0.31836,-0.33203 -0.474609,-0.33008 -0.31836,-0.16602 -0.476562,-0.33008 -0.316406,-0.33203 -0.476563,-0.16601 -0.318359,-0.33008 -0.476563,-0.33203 -0.316406,-0.33008 -0.478516,-0.33203 -0.316406,-0.49609 -0.316406,-0.33204 -0.31836,-0.16406 -0.318359,-0.16797 -0.158203,-0.16406 h -0.158203 l -0.318359,-0.16602 -0.158204,-0.16601 -0.160156,-0.16406 -0.158203,-0.16602 -0.158203,-0.16602 -0.158203,-0.33203 v -0.16601 l -0.160157,-0.16602 -0.158203,-0.16406 -0.158203,-0.33008 v -0.16797 l -0.160156,-0.16406 -2.0625,-0.82812 0.951172,-0.49805 1.271484,-1.98633 0.158203,-0.66211 0.31836,-0.49805 0.316406,-0.49609 0.318359,-0.49609 0.31836,-0.49805 0.316406,-0.49609 0.318359,-0.66211 0.158203,-0.66407 v -0.49414 -0.33203 -0.49609 l -0.158203,-0.33203 v -0.4961 l -0.160156,-0.33203 -0.158203,-0.49609 -0.158203,-0.33008 -0.158203,-0.33203 -0.31836,-0.49805 -0.160156,-0.33008 -0.316406,-0.33203 -0.31836,-0.33007 -0.316406,-0.33204 -0.318359,-0.33007 -0.316406,-0.33204 h -0.160157 l -0.158203,-0.16406 h -0.158203 -0.160156 l -0.158203,-0.16797 h -0.31836 v -0.16406 l -0.316406,-0.16602 h -0.158203 l -0.160156,-0.16601 h -0.158203 l -0.160157,-0.16406 h -0.158203 l -0.160156,-0.16602 -0.158203,-0.16601 h -0.158203 -0.316407 l -0.318359,-0.16602 h -0.158203 -0.318359 -0.316407 -0.160156 -0.316406 l -0.31836,-0.16602 h -0.316406 -0.318359 -0.160156 -0.31836 l -0.316406,0.16602 h -0.158203 -0.31836 l -0.318359,0.16602 0.318359,1.65625 -0.318359,0.33007 -0.316406,0.16602 -0.316406,0.33203 -0.160157,0.33008 -0.158203,0.33203 -0.160156,0.33203 -0.158203,0.33203 v 0.33008 l -0.160156,0.33203 v 0.4961 l -0.15625,0.33007 -0.158204,0.33204 v 0.33007 l -0.160156,0.33203 -0.158203,0.33008 -0.160156,0.33203 -0.158203,0.66211 -0.158203,0.4961 0.158203,0.49609 v 0.49805 0.49609 0.49609 l -0.158203,0.49805 -0.31836,0.33008 h -0.158203 l -0.158203,0.16797 h -0.160156 -0.158203 -0.160157 v -0.16797 h -0.15625 l -0.955078,-1.48828 h -0.158203 -0.158203 l -2.224609,1.1582 -0.316407,-0.33008 -0.158203,-0.49804 v -0.33008 l -0.158203,-0.49805 -0.160156,-0.33008 -0.158203,-0.49804 -0.31836,-0.33203 -0.160156,-0.33008 -0.15625,-0.4961 -0.158203,-0.33203 -0.160156,-0.49609 -0.31836,-0.33203 -0.158203,-0.33008 -0.318359,-0.33203 -0.158203,-0.33008 -0.316406,-0.33008 v -0.66211 l -0.160157,-0.66406 -0.158203,-0.66211 -0.158203,-0.66211 -0.318359,-0.66211 -0.158204,-0.66406 -0.318359,-0.66211 -0.158203,-0.66211 -0.318359,-0.66211 -0.316407,-0.66211 -0.318359,-0.66211 -0.318359,-0.66211 -0.158204,-0.66406 -0.318359,-0.66211 -0.158203,-0.66211 -0.318359,-0.66211 -0.632813,-0.49609 v -0.16602 -0.33203 -0.33008 -0.33203 l -0.318359,-0.99219 -0.158203,-0.99414 v -0.99218 -0.99414 -0.99414 -0.99414 l 0.158203,-0.99415 v -0.99414 -0.16406 h -0.158203 v -0.16601 l -0.160157,-0.16407 h -0.158203 v -0.16601 h -0.158203 l -0.160156,-0.66406 -0.158208,-0.82813 0.158208,-0.66211 v -0.82617 -0.66406 -0.66211 l -0.318358,-0.66016 -0.47461,-0.49805 h -0.16016 -0.1582 -0.0117 l 1.613282,-38.298824 -0.902342,-0.04102 -0.0723,1.212891 c -6.0093,1.188132 -6.00699,2.060664 -8.92969,-2.515625 -1.802,-2.821833 -9.95248,1.919853 -11.61718,0.02344 -0.8823,-1.005203 -6.89029,-3.550184 -5.81055,-1.859375 2.93447,4.594923 -1.38808,10.075912 -0.28125,18.435547 5.81809,3.134891 10.11167,-1.487701 16.45117,-0.150391 2.071,0.436687 6.88551,4.531951 9.59961,2.572266 l -1.64648,24.779301 -1.88672,1.80273 v 0.49609 l 0.16015,0.66211 0.15821,0.49805 0.1582,0.66211 0.16016,0.66211 0.1582,0.49609 v 0.66407 l -0.1582,0.66211 v 0.66015 l 0.1582,0.83008 v 0.66211 l 0.1582,0.66211 0.15821,0.66211 0.16015,0.66211 0.15821,0.82812 0.16015,0.66211 v 0.16602 h -0.16015 l -0.15821,0.16601 -0.79492,0.66211 -0.1582,0.82813 -0.15821,0.82617 v 0.69141 l -0.57812,-0.22071 -1.90234,-0.2832 -2.17188,0.2832 -1.62891,0.99219 -1.35937,1.13281 -0.40625,2.12305 0.13477,3.39844 0.4082,1.98242 1.08594,1.98242 0.95117,2.97461 -1.63086,1.83984 -4.20899,1.55664 -2.30859,1.55665 -1.62891,1.55859 -2.58007,8.21484 -2.03711,8.21094 0.13672,1.69922 -0.27149,1.27344 -0.4082,3.54101 -0.26953,3.11524 0.26953,2.40625 0.67969,1.27539 -0.40821,4.8125 -0.27148,2.6914 1.63086,1.69922 2.30664,0.14258 0.13672,-0.56641 -0.54297,-0.28515 -0.67774,-0.14258 -0.95117,-1.41406 0.26953,-1.27344 0.27344,-0.56836 h 0.27148 l 0.54297,0.42578 0.13477,0.70703 0.13672,0.99219 0.13476,0.42383 h 0.54297 l 0.27149,-1.27344 0.13476,-1.27539 v -1.69922 l -0.13476,-1.41406 -0.54297,-1.41797 1.22265,-2.12305 1.49414,-6.37109 0.27149,-2.83203 1.22265,-1.70117 -0.13671,3.96875 -0.54297,1.27148 v 0.99219 l 0.27148,2.54883 -1.22265,6.22851 v 6.79883 h 285.21679 c 0.0672,-14.73599 0.14762,-18.54148 0.10156,-34.34961 l -0.31054,-0.16211 -0.15625,-0.16211 -0.31055,-0.16406 -0.1543,-0.16016 -0.15625,-0.16211 -0.15625,-0.16211 -0.15429,-0.16211 -0.15625,-0.1621 -0.1543,-0.16211 -0.15625,-0.16211 -0.1543,-0.16211 -0.3125,-0.16211 -0.31054,-0.32422 -0.1543,-0.16211 -0.31055,-0.32422 -0.15625,-0.32422 -0.15625,-0.32422 -0.15429,-0.32421 -0.15625,-0.32422 -0.46485,-0.16211 -0.3125,-0.8086 0.3125,-0.32422 0.1543,-0.32421 0.15625,-0.48633 v -0.48633 l 0.1543,-0.32422 v -0.48633 l 0.15625,-0.48633 0.15429,-0.32421 0.15625,-0.48633 0.15625,-0.64844 0.1543,-0.48438 v -0.64843 -0.81055 -0.97266 -0.97265 l -0.1543,-0.81055 -0.15625,-0.64844 -0.15625,-0.48437 -0.15429,-0.48633 -0.15625,-0.48633 -0.31055,-0.48633 -0.31055,-0.48632 -0.31054,-0.32422 -0.4668,-0.16211 -0.1543,-0.16211 h -0.31054 l -0.15626,-0.16211 -0.15624,-0.16211 h -0.31055 -0.1543 l -0.15625,-0.16211 h -0.31055 -0.15625 l -0.31054,-0.16211 h -0.1543 -0.15625 l -0.31055,-0.16211 h -0.15429 -0.3125 l -0.1543,-0.16211 h -0.31055 -0.46679 -0.31055 l -0.4668,0.16211 h -0.31054 -0.31055 l -0.31055,0.16211 h -0.4668 l -0.15429,0.16211 h -0.15625 -0.15625 l -0.31055,0.16211 h -0.1543 l -0.15625,0.16211 h -0.15429 l -0.3125,0.16211 -0.1543,0.16211 -0.15625,0.16211 v 0.32422 0.32422 l 0.15625,0.1621 0.1543,0.16211 v 0.16211 l 0.15625,0.16211 -0.15625,0.32422 -0.1543,0.32422 -0.15625,0.16211 -0.1543,0.32422 -0.31054,0.32422 -0.15625,0.16211 -0.1543,0.32421 v 0.32227 l -0.3125,0.32422 -0.1543,0.48633 v 0.48633 0.32421 0.48633 l -0.15625,0.48633 v 0.32422 l -0.31054,0.32422 h -0.1543 l -0.15625,0.16211 h -0.15625 v 0.16211 l -0.1543,0.16211 h -0.15625 v 0.16015 l -0.15429,0.16211 v 0.16211 0.32422 l 0.93164,0.64844 0.77734,2.75586 0.15625,1.62109 0.62109,0.48633 h 0.31055 v 0.16016 0.1621 l -1.24414,0.64844 h -0.1543 l -0.15625,-0.16211 h -0.15429 -0.15625 -0.1543 l -0.15625,-0.16211 h -0.15625 l -0.1543,-0.16211 h -0.15625 l -0.31054,-0.16211 h -0.1543 l -0.3125,-0.1621 h -0.31055 l -0.15429,-0.16211 h -0.31055 -0.31055 -0.15625 -0.31055 -0.31054 -0.3125 -0.1543 -0.31055 -0.31054 -0.15625 -0.31055 -0.31055 -0.31054 l -0.31055,-0.16211 h -0.31055 l -0.15625,-0.16211 -0.31054,-0.16211 h -0.31055 -0.15625 l -0.1543,-0.16211 -0.62305,-0.8086 -0.15429,-0.32617 -0.15625,-0.32226 -0.1543,-0.16211 -0.15625,-0.32422 -0.31055,-0.16211 -0.15625,-0.16211 -0.31054,-0.16211 -0.31055,-0.16211 -0.31055,-0.32422 -0.31054,-0.32422 -0.4668,-0.16211 -0.31055,-0.32421 -0.31054,-0.32422 -0.31055,-0.32422 -0.31055,-0.16211 -0.46679,-0.32422 h -0.15625 -0.1543 l -0.1543,0.16211 h -0.15625 l -0.15625,0.16211 -0.1543,-0.32422 -0.3125,-0.32422 -0.15429,-0.32422 -0.31055,-0.32422 -0.15625,-0.32226 -0.31055,-0.32422 -0.31054,-0.16406 -0.31055,-0.32227 -0.15625,-0.32422 -0.31055,-0.32422 -0.15429,-0.16211 -0.15625,-0.32421 -0.31055,-0.32422 -0.15625,-0.16211 -0.31055,-0.32422 -0.31054,-0.16211 -1.70899,-2.26953 -0.31055,-0.32227 -0.15624,-0.16211 -0.1543,-0.16211 -0.15625,-0.32421 -0.1543,-0.16211 -0.15625,-0.32422 v -0.32422 l -0.15625,-0.16211 -0.1543,-0.48633 -0.15625,-0.48633 v -0.64648 -0.48828 -0.64649 -0.48633 -0.48632 l -0.15429,-0.48633 -0.15625,-0.16211 -0.1543,-0.32422 -0.15625,-0.16211 v -0.32422 l -0.1543,-0.32422 -0.15625,-0.16211 -0.15625,-0.32422 -0.15429,-0.1621 -0.15625,-0.16211 -0.15625,-0.16211 -0.11328,-0.11914 19.88867,-52.240239 -1.16992,-0.408203 -0.61329,1.53125 c -7.1096,-5.851881 -7.30722,-5.396455 -10.64062,-6.771485 -4.11,-1.69508 -12.77789,0.459218 -14.15039,-2.638672 -0.7275,-1.642317 -2.67929,-4.412489 -9.05469,-3.421874 0.3135,7.377976 -5.01657,9.213116 -7.14258,20.404296 4.9294,-4.914104 12.28311,-4.420451 22.00782,3.777344 5.72329,4.824378 6.08161,13.264933 10.48242,11.818363 l -11.41602,27.41992 h -0.25195 -0.15625 -0.1543 v 0.16211 0.16211 l 0.0508,0.9043 -0.51758,1.24218 v -0.0391 l -0.15624,-0.32422 v -0.16211 -0.32422 -0.16211 -0.32422 l -0.1543,-0.64843 v -0.16211 h -0.15625 -0.1543 l -0.15625,0.16211 -0.15625,0.16211 v 0.32422 l -0.1543,0.1621 v -0.1621 h -0.15625 l -0.15429,-0.16211 -0.15625,-0.16211 h -0.1543 l -0.15625,0.16211 -0.1543,0.16211 -0.15625,0.1621 -0.31054,1.78321 v 0.48633 0.48437 l 0.15625,0.48633 0.15429,0.48633 0.31055,0.32422 0.31055,0.32421 0.31054,0.16211 0.31055,0.48633 0.3125,0.32422 0.31055,0.32422 0.31054,0.32422 0.31055,0.32422 0.31055,0.32422 0.15625,0.32422 0.31055,0.32421 0.31054,0.32422 0.15625,0.48633 0.31055,0.32227 0.31055,0.32421 0.15429,0.32422 0.4668,0.48633 0.1543,0.48633 0.3125,0.48633 0.46679,0.48633 0.1543,0.48632 0.0625,0.0957 h -0.52539 -0.48242 l -0.7207,0.25195 h -0.48243 l -0.7207,0.25195 -0.48242,0.25 h -0.24219 l -0.7207,0.50196 -0.72266,0.50195 -0.96289,0.75391 -0.72266,0.75195 -0.24023,0.50195 -0.24219,0.50391 -0.24023,1.0039 v 0.75196 0.50195 l 0.24023,0.50391 0.24219,0.5 v -0.5 l 0.24023,-0.25196 h 0.24024 v -0.25195 h 0.24219 l -0.24219,0.75391 v 0.50195 0.75391 l 0.24219,0.50195 v 0.50195 l 0.24023,0.25196 -0.48242,0.75195 -0.24024,0.50391 v 0.25 0.25195 h 0.24024 0.24219 l 0.24023,0.25 v 0.25 0.25391 0.24804 h 0.48242 l -0.24219,0.50391 0.24219,0.25 0.24024,0.50195 v 0.50391 l 0.24023,0.25 0.24024,0.25195 h 0.24023 0.24219 l 0.7207,-0.25195 h 0.24219 0.48242 0.48047 l 0.24023,0.25195 0.24024,0.25 v 0.25195 l -0.48047,0.75391 -1.20508,1.50586 -0.48047,1.75586 -0.48242,1.75781 v 0.75391 l -1.68359,-2.51172 -2.44727,1.19726 0.0723,-0.9707 0.3125,-2.28516 0.15625,-2.2871 0.15625,-2.28711 -0.3125,-0.16407 -0.3125,-0.32617 -0.31446,-0.32617 -0.46875,-0.16406 -0.31445,-0.32617 -0.46875,-0.32618 -0.31445,-0.16406 -0.46875,-0.32617 -0.31446,-0.32813 -0.46875,-0.16211 -0.31445,-0.32617 -0.46875,-0.32812 -0.31445,-0.32617 -0.46875,-0.32618 -0.31446,-0.49023 -0.3125,-0.32617 -0.31445,-0.16406 -0.3125,-0.16211 -0.15625,-0.16407 h -0.15625 l -0.31445,-0.16406 -0.15625,-0.16406 -0.15625,-0.16211 -0.1582,-0.16406 -0.15626,-0.16211 -0.15624,-0.32813 v -0.16211 l -0.15626,-0.16406 -0.15624,-0.16406 -0.15626,-0.32617 v -0.16407 l -0.1582,-0.16211 -2.92773,-1.93164 0.9414,-0.49023 1.25196,-1.96094 0.15625,-0.65234 0.31445,-0.49024 0.3125,-0.49023 0.31445,-0.49023 0.3125,-0.49024 0.3125,-0.49023 0.31446,-0.65235 0.15625,-0.65429 v -0.49024 -0.32617 -0.49024 l -0.15625,-0.32617 v -0.49023 l -0.15625,-0.32617 -0.15821,-0.49024 -0.15625,-0.32617 -0.15625,-0.32812 -0.3125,-0.49024 -0.1582,-0.32617 -0.3125,-0.32617 -0.3125,-0.32617 -0.31445,-0.32813 -0.3125,-0.32617 -0.3125,-0.32617 h -0.15821 l -0.15625,-0.16407 h -0.15625 -0.15625 l -0.15625,-0.16406 h -0.31445 v -0.16211 l -0.3125,-0.16406 h -0.1582 l -0.15625,-0.16211 h -0.15625 l -0.15625,-0.16406 h -0.15625 l -0.15821,-0.16406 -0.15625,-0.16211 h -0.15625 -0.3125 l -0.31445,-0.16407 h -0.15625 -0.3125 -0.31445 -0.15625 -0.3125 l -0.31446,-0.16211 h -0.3125 -0.31445 -0.15625 -0.3125 l -0.31445,0.16211 h -0.15625 -0.3125 l -0.3125,0.16407 c -1.1854,1.0614 -1.30525,2.24739 -0.62695,2.44922 -0.6202,0.46899 -0.62696,0.61977 -0.62696,1.63476 l -0.15625,0.32617 v 0.49024 l -0.1582,0.32617 -0.15625,0.32617 v 0.32617 l -0.15625,0.32813 -0.15625,0.32617 -0.15625,0.32617 -0.1582,0.6543 -0.15625,0.48828 0.15625,0.49219 v 0.48828 0.49023 0.49024 c -1.23001,3.8499 0.56145,-0.75413 -3.964847,1.60547 l -0.3125,-0.32618 -0.15625,-0.49023 v -0.32813 l -0.15625,-0.48828 -0.15625,-0.32812 -0.158203,-0.48828 -0.3125,-0.32813 -0.15625,-0.32617 -0.15625,-0.49023 -0.158203,-0.32618 -0.15625,-0.49023 -0.3125,-0.32617 -0.15625,-0.32813 -0.314453,-0.32617 -0.15625,-0.32617 -0.314453,-0.32617 v -0.6543 l -0.15625,-0.65234 -0.15625,-0.6543 -0.15625,-0.65234 -0.314453,-0.6543 -0.15625,-0.65235 -0.3125,-0.65429 -0.15625,-0.65235 -0.314453,-0.65429 -0.3125,-0.6543 -0.314453,-0.65234 -0.3125,-0.6543 -0.15625,-0.65234 -0.314453,-0.6543 -0.15625,-0.65234 -0.3125,-0.6543 -0.626954,-0.49024 v -0.16211 -0.32812 -0.32617 -0.32617 l -0.3125,-0.98047 -0.15625,-0.98047 v -0.98047 -0.97852 -0.98046 -0.98047 l 0.15625,-0.98047 v -0.97852 -0.16406 h -0.15625 v -0.16406 l -0.158203,-0.16211 h -0.15625 v -0.16406 h -0.15625 l -0.15625,-0.65235 -0.158203,-0.81836 c -0.874802,-1.86391 -2.621664,0.49628 -2.505859,0.16407 l -1.878907,1.79687 v 0.49023 l 0.15625,0.65235 0.15625,0.49023 0.15625,0.6543 0.158204,0.65234 0.15625,0.49024 v 0.65429 l -0.15625,0.65235 v 0.6543 l 0.15625,0.8164 v 0.65234 l 0.15625,0.6543 0.15625,0.6543 0.15625,0.65234 0.158203,0.81641 0.15625,0.6543 v 0.16211 h -0.15625 l -0.158203,0.16406 -0.783204,0.65234 -0.15625,0.81836 -0.15625,0.81641 v 0.8164 l 0.15625,0.98047 0.3125,0.81641 0.158204,0.8164 0.46875,0.81641 0.314453,0.81641 0.46875,0.81836 0.314453,0.8164 0.46875,0.81641 0.470703,0.98047 0.3125,0.8164 0.314453,0.81641 0.3125,0.81641 0.314453,0.8164 0.15625,0.6543 0.15625,0.49023 0.3125,0.65235 0.158203,0.65429 0.15625,0.65235 0.15625,0.49023 0.15625,0.6543 0.15625,0.48828 0.314454,0.6543 0.15625,0.49023 0.3125,0.6543 0.158203,0.49023 0.3125,0.48828 0.470703,0.49024 0.3125,0.49023 0.470703,0.49024 0.46875,0.98047 0.3125,0.8164 0.158203,0.81641 v 0.81641 l -0.158203,0.8164 -0.06445,0.34375 -0.01172,-0.0117 -0.267578,-0.27929 -0.269531,-0.14063 -0.269532,-0.2793 -0.132812,-0.14062 -0.265625,-0.2793 -0.134766,-0.27929 -0.134765,-0.2793 -0.267578,-0.2793 -0.134766,-0.2793 -0.134766,-0.27929 -0.132812,-0.27735 -0.267578,-0.27929 -0.132813,-0.28125 -0.134765,-0.13868 -0.267579,-0.28124 -0.134765,-0.27735 -0.269532,-0.27734 -0.267578,-0.14063 -0.132812,-0.14062 -0.265625,-0.28125 -0.269531,-0.14063 -0.269532,-0.13867 -0.267578,-0.14062 -0.398437,-0.13868 -0.269531,-0.13671 -0.269532,-0.14063 -0.269531,-0.14063 -0.265625,-0.14062 -0.265625,-0.14062 -0.269531,-0.13868 -0.267578,-0.28125 -0.136719,-0.14062 -0.267578,-0.27539 -0.132813,-0.13867 -0.130859,-0.14063 v -0.14062 l -0.134766,-0.14063 -0.134765,-0.14062 v -0.14063 L 87.75,145.23047 v -0.13867 l -0.134766,-0.13672 v -0.14063 -0.14062 -0.13867 l -0.134765,-0.14063 v -0.14062 -0.28125 -0.13868 -0.13867 -0.27734 l 0.134765,-0.14063 v -0.14062 -0.13867 l -0.134765,-0.14063 v -0.14062 -0.14063 -0.13867 -0.13867 l -0.134766,-0.13867 v -0.13868 l -0.132812,-0.14062 -0.134766,-0.14063 v -0.13867 l -0.130859,-0.14258 -0.132813,-0.13867 -0.134765,-0.14062 -0.134766,-0.13867 -0.134766,-0.13868 -0.134765,-0.27929 v -0.2793 l -0.132813,-0.28125 v -0.2793 -0.27734 -0.41992 -0.2793 -0.28125 -0.27734 -0.2793 -0.2793 l -0.136719,-0.28125 v -0.41992 -0.27734 l -0.132812,-0.27735 -0.132813,-0.28125 v -0.14062 l -0.132812,-0.14063 -0.132813,-0.13867 v -0.14062 l -0.134765,-0.13868 -0.134766,-0.27734 v -0.14062 l -0.134766,-0.13868 v -0.14062 -0.28125 -0.2793 -0.13867 -0.27734 -0.14063 -0.27929 -0.14063 -0.14063 -0.27929 -0.13867 -0.27735 -0.14062 -0.2793 l -0.134765,-0.14062 v -0.28125 L 84.667969,131.26367 84.533203,131.125 84.400391,130.8457 84.134766,130.56445 84,130.2832 l -0.134766,-0.14062 -0.267578,-0.27539 -0.269531,-0.13867 -0.134766,-0.14063 -0.263671,-0.13867 -0.269532,-0.14063 -0.269531,-0.14062 -0.267578,-0.14063 h -0.269531 l -0.263672,-0.14062 h -0.269532 l 0.134766,-0.13867 0.134766,-0.13867 0.132812,-0.13868 0.13086,-0.13867 0.134765,-0.14062 h 0.269531 l 0.132813,-0.14063 0.136719,-0.13867 h -0.136719 l -0.132813,-0.14258 h -0.134765 l -0.134766,-0.13867 h -0.134765 -0.13086 l -0.267578,-0.13867 H 81.185547 80.916016 80.648438 80.382812 80.25 l -0.267578,0.13867 h -0.269531 l -0.134766,0.13867 h -0.269531 l -0.263672,0.14258 -0.134766,0.13867 -0.267578,0.14063 h -0.134766 l -0.269531,0.14062 -0.269531,0.13867 v -0.13867 -0.14062 l -0.132812,-0.14063 v -0.13867 -0.14258 l -0.13086,0.14258 v 0.13867 l -0.134766,0.14063 v 0.14062 l -0.132812,0.13867 -0.134766,-0.27929 -0.269531,-0.28125 -0.269531,-0.14063 -0.265625,-0.13867 -0.267578,-0.14063 -0.267578,-0.14062 h -0.269532 l -0.402343,-0.13672 0.132812,0.13672 v 0.14062 l 0.134766,0.14063 v 0.13867 0.14063 l 0.134765,0.14062 h -0.269531 -0.132812 -0.132813 -0.267578 l -0.132813,0.14063 h -0.134765 l -0.134766,0.14062 h -0.134765 l -0.269532,0.13867 -0.132812,0.27539 -0.265625,0.14063 -0.134766,0.28125 -0.132812,0.14062 -0.134766,0.2793 -0.134765,0.2793 -0.134766,0.27539 -0.134766,0.14062 -0.132812,0.28125 -0.134766,0.2793 v 0.28125 l -0.130859,0.27734 -0.134766,0.27735 v 0.28125 l -0.132812,0.14062 h 0.267578 0.130859 l 0.134766,0.14063 h 0.132812 0.269532 0.134765 0.134766 0.132812 v 0.13867 l -0.132812,0.2793 v 0.27734 l -0.134766,0.2793 -0.134765,0.14062 v 0.28125 l -0.134766,0.13867 v 0.2793 l -0.134766,0.13867 -0.132812,0.2793 v 0.13867 0.14063 0.14062 l 0.132812,0.14063 v 0.27929 l 0.134766,0.13867 -0.134766,0.27735 -0.267578,0.2793 -0.130859,0.28125 -0.134766,0.14062 -0.132812,0.2793 -0.134766,0.27539 -0.269531,0.14062 -0.134766,0.28125 -0.132812,0.13868 v 0.14062 0.14062 l 0.132812,0.14063 h 0.134766 l 0.134765,0.13867 h 0.134766 l 0.134766,0.13867 h 0.132812 0.134766 v 0.13868 h 0.130859 0.134766 l 0.132812,0.13867 h 0.134766 v 0.14062 0.14063 0.13867 0.14062 0.14063 h 0.134766 v 0.13867 l 0.134765,0.14063 v 0.13867 l 0.134766,0.13672 v 0.28125 l -0.134766,0.14062 v 0.14063 0.13867 0.28125 0.13867 l 0.134766,0.13867 v 0.13867 l 0.132812,0.14063 0.134766,0.13867 v 0.14063 0.14062 l -0.134766,0.28125 0.134766,0.27735 0.132812,0.13671 0.265625,0.14063 h 0.134766 l 0.404297,0.13867 h 0.267578 0.267578 0.265625 l 0.134766,0.14063 h 0.134765 l 0.134766,0.14062 0.134766,0.14063 0.134765,0.14062 0.132813,0.14063 0.134765,0.13867 0.132813,0.13867 0.130859,0.13867 0.134766,0.13867 0.134766,0.14063 0.134765,0.14062 0.134766,0.28125 0.269531,0.13868 0.132812,0.14062 0.134766,0.13867 0.13086,0.13672 0.132812,0.14063 0.134766,0.27929 0.134765,0.14063 0.134766,0.14062 -0.134766,0.14063 -0.134765,0.13867 v 0.14062 l -0.134766,0.2754 -0.132812,0.14062 -0.13086,0.13867 -0.134766,0.14063 -0.132812,0.14062 -0.134766,0.13867 -0.134765,0.14258 -0.134766,0.13867 v 0.14063 l -0.134765,0.13867 -0.134766,0.13672 -0.134766,0.14062 -0.130859,0.14063 -0.132813,0.2793 -0.134765,0.28125 -0.132813,0.14062 -0.134765,0.27734 -0.134766,0.27735 -0.134766,0.28125 v 0.28125 l -0.134765,0.2793 -0.134766,0.27734 v 0.2793 0.27929 l -0.132812,0.28125 v 0.2793 0.41602 l -0.132813,0.28125 v 0.27929 l -0.132812,0.28125 -0.134766,0.2793 v 0.27734 l -0.132813,0.2793 -0.134765,0.28125 -0.134766,0.2793 -0.0039,0.0117 -0.429687,-5.0625 -0.392579,-1.64258 -0.787109,-1.23047 -0.787109,-1.23047 -0.78711,-0.82227 -2.753906,-1.23046 -0.394531,-0.82032 v -0.82031 l -0.394532,-0.41016 v -1.23242 l 0.394532,-1.23047 v -4.10351 l -0.394532,-1.23242 -0.392578,-1.23047 -0.392578,-1.64063 -0.394531,-0.41211 v -0.82031 l -0.787109,-0.82031 -0.78711,-0.41016 v -0.82031 h -0.787109 l -0.394531,-0.82227 h -0.78711 L 62.25,125.86719 62.019531,125.78711 67.166016,29.068359 Z M 18.78125,104.34961 c 12.836787,0.0206 25.771644,0.8171 38.878906,2.75977 1.318602,0.19539 2.264098,-0.0673 2.9375,-0.67969 l -0.921875,19.02734 h -1.361328 -1.181641 l -0.787109,0.41016 -0.787109,0.41015 h -0.78711 l -0.787109,0.82227 -0.392578,0.41016 -0.787109,0.41015 -0.394532,0.82031 -0.392578,0.41016 -0.394531,1.23242 v 0.82031 0.41016 0.82031 l 0.394531,0.82032 1.179688,1.23242 -0.392578,0.82031 v 0.41016 l 0.787109,1.23047 -0.394531,2.46289 h 0.394531 0.787109 l 0.392578,0.82031 0.78711,0.41211 -0.392578,0.41015 v 0.82032 l 0.785156,0.41015 -1.966797,0.41016 h -0.787109 l -0.392578,0.41016 -0.394532,0.41015 -0.392578,0.82031 v 0.41211 l -1.574219,7.79688 -1.574218,-5.74609 0.392578,-0.41016 v -0.41016 l 0.394531,-0.41015 v -1.64258 c -0.622712,-6.25716 -2.526778,-5.92128 -3.148438,-4.69336 v 0.17969 0.82031 l 0.392579,0.82226 c -0.699786,-0.33745 -0.710229,-1.19483 -0.392579,-1.82226 V 139 136.94727 h -0.787109 l -0.787109,1.64257 v 1.64063 l -0.394532,1.64258 v 2.05078 l 0.394532,1.64258 0.392578,3.69336 -2.753906,2.05078 5.115234,11.49218 -1.664062,8.32618 -0.0332,-0.17969 -0.238281,-1.6582 -0.251953,-1.2461 -0.333984,-1.79687 -0.513672,-2.2168 -1.214844,-4.7168 -0.710938,-2.22461 -0.728515,-1.67382 -0.646485,-1.12305 -0.658203,-0.84766 -0.74414,-1.12695 -1.486328,-2.38867 -0.746094,-1.125 -0.556641,-0.98242 -0.371094,-0.5625 -0.08984,-0.2793 -0.03906,-1.78711 0.101563,-0.13281 0.214843,-0.54297 0.226563,-0.95313 0.03516,-1.09961 0.04883,-1.50976 -0.04297,-1.65039 -0.324219,-2.07227 -0.359375,-0.97656 -0.554688,-0.98047 -0.658203,-0.84766 -0.673828,-0.29882 -0.484375,-0.1543 -0.384765,-0.15039 -1.160157,-0.45508 -0.86914,-0.30469 -0.88086,-0.0312 -0.886719,0.24414 -0.898437,0.51758 -1.503906,1.18164 -0.609375,0.66602 -0.414063,0.67187 -0.314453,0.67774 -0.21289,0.54101 -0.414063,0.67383 -0.734375,1.48633 0.494141,-0.12109 0.195312,0.008 -0.105469,0.27148 0.570313,0.4336 0.392578,0.0137 -0.02344,0.68555 0.07617,0.6914 0.173829,0.69336 -0.117188,0.54492 -0.71875,1.07422 -0.21875,0.67969 0.08398,0.41406 0.578125,0.29688 0.0918,0.14062 0.08984,0.27735 -0.01367,0.4121 0.08008,0.55274 0.378906,0.42578 0.28711,0.14648 0.08789,0.2793 -0.310546,0.53711 0.08789,0.2793 0.191406,0.14453 0.1875,0.28125 0.167969,0.83008 0.173828,0.69336 0.283203,0.28515 0.289063,0.14844 0.785156,-0.10938 0.697266,-0.38867 0.501953,-0.39453 0.199219,-0.1289 0.197265,0.006 0.38086,0.28906 0.18164,0.41797 0.08398,0.41601 -0.0078,0.27344 -1.417968,1.46289 -0.384766,-0.15039 -0.582031,-0.16016 -0.675782,-0.29882 -0.582031,-0.15626 -0.384766,-0.15234 -0.476562,-0.42773 -0.572266,-0.4336 -0.777343,-0.16406 -0.871094,-0.30664 -0.03906,-0.0312 v -9.05078 l -2.673828,-2.16797 -5.34375,-2.47656 2.671875,-2.16797 v -1.23828 l -0.890625,-4.64453 0.890625,-1.23829 -5.34375,-7.12109 -3.564453,-1.23828 -3.5624999,4.95313 -1.78125,5.88281 -1.7832031,-1.23828 -0.890625,5.88281 2.6738281,2.16797 -3.4355469,2.38672 0.074219,-0.15235 0.1308594,-0.41797 v -0.27734 -0.41602 -0.41796 l -0.265625,-0.41602 -0.265625,-0.55469 -0.1328125,-0.41797 -0.13281252,-0.55468 -0.1328125,-0.55664 -0.13476563,-0.55469 v -0.55664 l -0.1328125,-0.55469 v -0.55469 l -0.1328125,-0.41797 -0.1328125,-0.55664 -0.13476563,-0.55468 -0.26562499,-0.41797 -0.13281251,-0.41602 -0.40039062,-0.41601 -0.3984375,-0.41797 -0.1347656,-0.13868 -0.265625,-0.13867 -0.2675781,-0.13867 -0.1328126,-0.13867 -0.265625,-0.27734 -0.2675781,-0.13868 -0.265625,-0.27929 L -2.875,128.07812 h -0.1328125 l -0.265625,-0.13867 H -3.40625 -3.6738281 l -0.1328125,-0.13867 h -0.265625 -0.1347656 -0.265625 -0.1328126 -0.265625 -0.2675781 l -0.1328125,0.13867 h -0.265625 l -0.1347656,0.13867 h -0.1328125 l -0.265625,0.13868 -0.4003906,0.13867 -0.3984375,0.14062 -0.4003906,0.27735 -0.2675782,0.27734 -0.3984375,0.13867 -0.4003906,0.2793 -0.265625,0.27734 -0.4003906,0.27735 -0.265625,0.27734 -0.2675781,0.2793 -0.4003907,0.27734 -0.2656251,0.27735 -0.40039,0.27734 -0.265626,0.2793 -0.265624,0.41601 -0.400391,0.27735 -0.132813,0.27929 -0.134765,0.27735 -0.132813,0.27734 -0.132812,0.27734 v 0.2793 l -0.132813,0.41602 v 0.27734 l 0.132813,0.2793 1.066406,0.27734 0.132812,0.41602 0.132813,0.55468 0.132813,0.41797 v 0.41602 0.55469 0.41796 l -0.132813,0.55665 -0.132813,0.41601 0.132813,0.41602 v 0.41797 0.27734 0.41797 l 0.132813,0.13867 0.134765,0.13672 0.132813,0.14062 0.132812,0.13868 0.132813,0.13867 0.1328121,0.14062 0.1347657,0.13672 0.1328124,0.13867 v 0.13867 l 0.1328126,0.13868 0.1328124,0.14062 v 0.13867 0.13868 0.13867 l -0.1328124,0.13867 -0.1328126,0.13867 h -0.1328124 -0.2675778 l -0.132813,0.13867 h -0.132812 -0.132813 l -0.267578,0.14063 h -0.132813 l -0.666015,0.13867 -0.533203,0.27734 -0.533203,0.27735 -0.398438,0.41797 -0.400391,0.41601 -0.40039,0.41602 -0.398438,0.55664 -0.267578,0.55469 -0.398437,0.55664 -0.267578,0.55468 -0.265625,0.55664 -0.400391,0.55664 -0.265625,0.55469 -0.400391,0.55664 -0.398437,0.41602 -0.400391,0.55469 -0.132812,0.13867 -0.134766,0.13867 -0.132812,0.2793 -0.265625,0.13867 -0.132813,0.13867 -0.134765,0.27734 -0.132813,0.14063 -0.132813,0.13672 -0.132812,0.14062 -0.132812,0.13867 -0.265626,0.13868 -0.134765,0.13867 -0.132813,0.13867 -0.132812,0.14062 -0.267578,0.13672 -0.132813,0.13868 -0.132812,0.41796 -0.132813,0.27735 -0.134765,0.27734 -0.265625,0.41797 -0.265625,0.27539 -0.134766,0.2793 -0.265625,0.27734 -0.267578,0.2793 -0.265625,0.27734 -0.267578,0.27735 -0.13086,0.27734 -0.03711,0.0391 0.630859,-1.7539 0.808594,-2.36133 0.484375,-2.02149 0.486328,-1.51953 0.16211,-0.84179 v -0.50586 l -0.16211,-0.84375 -0.324218,-0.84375 -0.646485,-1.01172 -0.808594,-1.01172 -1.132812,-1.01172 -1.455078,-0.8418 -1.777344,-0.84375 0.646484,-0.50586 0.646485,-0.50586 0.162109,-0.67578 -0.162109,-1.00976 -0.646485,-0.84375 -0.324218,-0.33789 0.162109,-0.16797 0.322266,-0.33789 0.648437,-1.34961 v -0.50586 l -0.486328,-0.50586 -1.130859,-0.33594 h -1.941407 v -1.51758 l -0.322265,-1.51757 -0.486328,-1.18165 -0.808594,-0.84179 -0.96875,-0.84375 -1.132813,-0.50586 -2.425781,-0.50586 h -1.130859 l -0.970703,0.16797 -0.50586,0.33008 -4.414062,-10.39844 c 6.357301,-5.76461 21.036013,-10.50554 30.070312,-11.19141 9.8991374,-0.7515 19.8244266,-1.20543 29.808594,-1.18945 z m 108.66016,26.49609 0.2539,0.12305 -0.0254,0.0273 h -0.15625 z"
       transform="matrix(0.26458333,0,0,0.26458333,-66.69543,149.82398)"
       id="path906"
       inkscape:connector-curvature="0" />
    <path
       d="m -75.459113,171.10491 c -0.167931,-0.61999 -0.331178,-1.24399 -0.513926,-1.86666 -0.07385,-0.25175 -0.151871,-0.50271 -0.222912,-0.76451 -0.0703,-0.25903 -0.14724,-0.5143 -0.225451,-0.76618 -0.0055,0.002 -0.01106,0.003 -0.01648,0.004 0.034,0.26482 0.06609,0.53268 0.101018,0.8043 0.03469,0.26945 0.0631,0.53652 0.08501,0.80275 0.05479,0.66516 0.10205,1.329 0.147717,1.99305 0.213175,-0.0682 0.431773,-0.13726 0.645027,-0.20688 z m 0.666195,2.7014 c -0.07898,-0.33726 -0.152453,-0.67543 -0.233918,-1.01439 -0.338349,0.11616 -0.673868,0.22969 -1.006925,0.34637 0.0062,0.36883 0.007,0.73858 0.01328,1.10741 -0.495406,0.22082 -0.993484,0.44146 -1.483519,0.66278 0.004,-1.4996 -0.0083,-2.99524 -0.07514,-4.48571 -0.06676,-1.48799 -0.180182,-2.97006 -0.299588,-4.44286 0.669158,-0.17473 1.345962,-0.34444 2.022422,-0.50991 0.523002,1.31869 1.032404,2.63007 1.472486,3.94997 0.436827,1.31029 0.807427,2.62361 1.153978,3.92718 -0.526811,0.14685 -1.04796,0.29131 -1.563077,0.45916 z m 5.69743,-1.10797 c -0.08199,-0.86934 -0.165285,-1.73826 -0.270457,-2.60599 -0.10496,-0.86672 -0.231775,-1.73357 -0.357134,-2.59987 -0.0083,0.002 -0.01368,0.003 -0.01916,0.004 5.29e-4,0.30856 0.0027,0.6146 0.0081,0.91496 0.0053,0.29924 0.005,0.6046 -0.0054,0.91657 -0.01926,0.57242 -0.03985,1.14646 -0.0658,1.71849 -0.02601,0.5733 -0.05739,1.14626 -0.09261,1.71741 -0.424021,0.047 -0.846455,0.10684 -1.268941,0.1668 -0.161872,-0.84836 -0.33065,-1.69826 -0.524007,-2.53733 -0.193728,-0.84082 -0.411454,-1.67934 -0.633254,-2.51913 -0.0055,8e-4 -0.01349,1.6e-4 -0.0163,0.001 0.0386,0.30503 0.08829,0.61034 0.131975,0.91519 0.04236,0.29612 0.08049,0.59812 0.108638,0.90458 0.05146,0.55973 0.09705,1.12022 0.134117,1.67892 0.03715,0.56012 0.06339,1.11921 0.09395,1.67661 -0.550994,0.11467 -1.10183,0.22796 -1.644835,0.37608 -0.03776,-1.38838 -0.09009,-2.78027 -0.199019,-4.17036 -0.108903,-1.39023 -0.258206,-2.78109 -0.414204,-4.17203 0.701515,-0.14325 1.407238,-0.27327 2.115263,-0.39886 0.202962,0.71432 0.412591,1.42912 0.60071,2.14357 0.188092,0.71416 0.365072,1.4333 0.540808,2.15072 0.0027,2.4e-4 0.0082,-5.3e-4 0.0163,-0.001 -0.0075,-0.25951 -0.015,-0.51758 -0.02804,-0.77611 -0.01294,-0.25717 -0.01707,-0.51522 -0.01746,-0.77369 -7.94e-4,-0.48527 -0.0061,-0.97028 -0.01328,-1.45436 -0.0072,-0.48263 -0.0093,-0.96486 -0.01363,-1.4501 0.708025,-0.0943 1.419781,-0.16828 2.128017,-0.23265 0.269849,1.38171 0.537792,2.76704 0.762847,4.15639 0.224711,1.38708 0.406109,2.78358 0.570124,4.17531 -0.542634,0.0174 -1.085453,0.0361 -1.627267,0.0749 z m 1.429121,-2.89735 c 0.05993,0.11801 0.129566,0.23257 0.21328,0.33994 0.08612,0.11044 0.173699,0.20542 0.265801,0.29366 0.09207,0.0882 0.19124,0.15949 0.288819,0.21191 0.09808,0.0527 0.200475,0.0804 0.305408,0.0813 0.110252,7.9e-4 0.210662,-0.0432 0.307552,-0.13327 0.09903,-0.0921 0.141288,-0.22812 0.129566,-0.41436 -0.0066,-0.10409 -0.0227,-0.19201 -0.0472,-0.2675 -0.0245,-0.0756 -0.05964,-0.14316 -0.10369,-0.20447 -0.04257,-0.0592 -0.08454,-0.11716 -0.133536,-0.17039 -0.04707,-0.051 -0.103478,-0.1025 -0.158935,-0.15708 -0.173064,-0.17021 -0.326549,-0.34552 -0.478234,-0.51684 -0.150389,-0.16976 -0.284718,-0.35039 -0.411057,-0.54758 -0.120809,-0.18854 -0.216059,-0.4028 -0.298291,-0.63794 -0.08226,-0.23519 -0.144436,-0.50797 -0.175234,-0.81835 -0.02421,-0.24355 -0.01849,-0.52494 0.0104,-0.84786 0.02847,-0.31859 0.102712,-0.6241 0.225717,-0.91009 0.122131,-0.28395 0.291703,-0.53147 0.525436,-0.73131 0.230875,-0.19732 0.533876,-0.29757 0.902202,-0.28651 0.211826,0.006 0.429445,0.0572 0.649632,0.14906 0.219181,0.0915 0.42082,0.21151 0.610685,0.35298 0.0485,0.85199 0.102684,1.70019 0.159437,2.55006 -0.0554,-0.10756 -0.123719,-0.21813 -0.203358,-0.33039 -0.08133,-0.1147 -0.169572,-0.21693 -0.256646,-0.30562 -0.09126,-0.0929 -0.189548,-0.17103 -0.287205,-0.23164 -0.09919,-0.0616 -0.199258,-0.0947 -0.298424,-0.0991 -0.101944,-0.005 -0.195024,0.0366 -0.282337,0.12139 -0.08879,0.0863 -0.12827,0.21262 -0.112712,0.37475 0.0086,0.0904 0.0317,0.17317 0.06988,0.25398 0.03707,0.0784 0.0803,0.15472 0.129117,0.22248 0.04987,0.0694 0.105251,0.13132 0.164253,0.18892 0.06027,0.0588 0.113189,0.11845 0.163327,0.16885 0.180605,0.18172 0.34761,0.35716 0.493792,0.52401 0.148273,0.16925 0.270193,0.35327 0.373116,0.5497 0.105463,0.20132 0.1905,0.41611 0.251592,0.64921 0.0608,0.23183 0.09985,0.50839 0.112448,0.82806 0.01548,0.39238 -0.01963,0.75301 -0.100621,1.08535 -0.08054,0.33065 -0.196585,0.61942 -0.351261,0.86712 -0.153961,0.24654 -0.343085,0.43601 -0.570997,0.5706 -0.222885,0.13166 -0.469609,0.20074 -0.741072,0.1964 -0.403357,-0.006 -0.794411,-0.12425 -1.184645,-0.34711 -0.04138,-0.87257 -0.0961,-1.74648 -0.155998,-2.62226 z m 5.646922,0.24234 c -0.07104,-0.65075 -0.132635,-1.29876 -0.207989,-1.9489 -0.03011,-0.25974 -0.0657,-0.52324 -0.08877,-0.79033 -0.02297,-0.26615 -0.04657,-0.52761 -0.07813,-0.78934 -0.0054,8e-4 -0.01077,5.3e-4 -0.01598,-0.002 -0.02178,0.25527 -0.03725,0.51551 -0.0504,0.78012 -0.01307,0.26321 -0.03487,0.52134 -0.05826,0.77795 -0.05826,0.63858 -0.114432,1.27884 -0.174281,1.91731 0.224605,0.0182 0.449077,0.0379 0.673814,0.0547 z m 0.302393,2.86345 c -0.03392,-0.36005 -0.06797,-0.71871 -0.104326,-1.08183 -0.350467,-0.0258 -0.700907,-0.0529 -1.051136,-0.0815 -0.04368,0.35423 -0.08469,0.70866 -0.125704,1.06313 -0.532606,-0.0371 -1.065133,-0.0757 -1.600676,-0.11028 0.203835,-1.37999 0.392695,-2.75844 0.570733,-4.13518 0.177641,-1.37379 0.360997,-2.74865 0.561684,-4.12318 0.700431,0.0585 1.403773,0.11454 2.105395,0.15899 0.217091,1.40099 0.455639,2.80117 0.667147,4.20576 0.211323,1.40327 0.401002,2.81157 0.576686,4.22426 -0.535305,-0.0374 -1.0677,-0.0773 -1.599803,-0.12015 z m 1.650761,0.12208 c 0.02797,-1.40068 0.05191,-2.79911 0.06183,-4.19709 0.0098,-1.39118 0.01939,-2.78492 0.05733,-4.17621 1.015021,-2e-5 2.044964,-0.0485 3.080332,-0.16044 -0.06527,0.67067 -0.111945,1.34451 -0.147717,2.01652 -0.434975,0.0488 -0.865717,0.0795 -1.296035,0.10597 -0.01595,0.40798 -0.02633,0.81364 -0.03948,1.22049 0.394679,-0.0185 0.789808,-0.0426 1.191392,-0.0788 -0.0309,0.67813 -0.06178,1.35631 -0.09284,2.03589 -0.386662,0.0191 -0.770414,0.0358 -1.153319,0.0426 -0.01667,0.54298 -0.03485,1.08736 -0.05575,1.63266 -0.02093,0.54412 -0.03913,1.08974 -0.06152,1.63648 -0.515249,-0.0199 -1.032457,-0.0485 -1.544241,-0.078 z m 3.731208,-8.61185 c 1.111011,-0.24132 2.246286,-0.57708 3.415506,-1.02764 -0.121444,0.72943 -0.224182,1.46053 -0.31078,2.19176 -0.519668,0.19015 -1.03251,0.36242 -1.537308,0.50422 -0.03813,0.41587 -0.07086,0.83081 -0.103796,1.24854 0.443044,-0.11197 0.890667,-0.2463 1.344639,-0.39143 -0.07374,0.73808 -0.145019,1.47931 -0.214022,2.22496 -0.435266,0.1156 -0.869183,0.21569 -1.294156,0.30523 -0.03426,0.46455 -0.06837,0.92771 -0.102712,1.39369 0.464768,-0.083 0.938186,-0.17222 1.412928,-0.27699 -0.07284,0.75954 -0.148881,1.52445 -0.219657,2.29124 -0.984832,0.11953 -1.963684,0.19981 -2.928329,0.24013 0.08242,-1.47098 0.161528,-2.93362 0.236935,-4.38825 0.07496,-1.44457 0.165206,-2.88361 0.300752,-4.31546 z"
       style="fill:#ffffff;fill-rule:evenodd;stroke-width:0.26458332"
       id="path914"
       inkscape:connector-curvature="0" />
  </g>
</svg>
