<?xml version="1.0" encoding="UTF-8" standalone="no"?>
<!-- Created with Inkscape (http://www.inkscape.org/) -->

<svg
   xmlns:dc="http://purl.org/dc/elements/1.1/"
   xmlns:cc="http://creativecommons.org/ns#"
   xmlns:rdf="http://www.w3.org/1999/02/22-rdf-syntax-ns#"
   xmlns:svg="http://www.w3.org/2000/svg"
   xmlns="http://www.w3.org/2000/svg"
   xmlns:sodipodi="http://sodipodi.sourceforge.net/DTD/sodipodi-0.dtd"
   xmlns:inkscape="http://www.inkscape.org/namespaces/inkscape"
   width="21.157621mm"
   height="5.6198559mm"
   viewBox="0 0 21.157621 5.619856"
   version="1.1"
   id="svg1008"
   inkscape:version="0.92.3 (2405546, 2018-03-11)"
   sodipodi:docname="logo-cta.svg">
  <defs
     id="defs1002" />
  <sodipodi:namedview
     id="base"
     pagecolor="#ffffff"
     bordercolor="#666666"
     borderopacity="1.0"
     inkscape:pageopacity="0.0"
     inkscape:pageshadow="2"
     inkscape:zoom="0.35"
     inkscape:cx="48.313918"
     inkscape:cy="18.766098"
     inkscape:document-units="mm"
     inkscape:current-layer="layer1"
     showgrid="false"
     fit-margin-top="0"
     fit-margin-left="0"
     fit-margin-right="0"
     fit-margin-bottom="0"
     inkscape:window-width="1920"
     inkscape:window-height="986"
     inkscape:window-x="-11"
     inkscape:window-y="-11"
     inkscape:window-maximized="1" />
  <metadata
     id="metadata1005">
    <rdf:RDF>
      <cc:Work
         rdf:about="">
        <dc:format>image/svg+xml</dc:format>
        <dc:type
           rdf:resource="http://purl.org/dc/dcmitype/StillImage" />
        <dc:title></dc:title>
      </cc:Work>
    </rdf:RDF>
  </metadata>
  <g
     inkscape:label="Capa 1"
     inkscape:groupmode="layer"
     id="layer1"
     transform="translate(69.10151,-148.17868)">
    <g
       transform="matrix(0.26458333,0,0,0.26458333,-149.08965,46.968778)"
       id="g1565">
      <path
         inkscape:connector-curvature="0"
         id="path941"
         style="fill:#c50719;fill-rule:evenodd"
         d="m 336.9383,390.64 h 5.0118 l -3.5762,7.8791 c -0.4093,0.8307 -1.1086,1.8009 -1.1969,2.8602 h 10.9784 l 4.5343,-10.7393 h 3.8186 c -0.0654,0.787 -2.6897,6.7823 -3.205,8.0119 -0.3777,0.9017 -0.8778,1.813 -1.0909,2.7274 h 10.5009 c 0.3585,-0.6773 0.7639,-1.3285 0.9547,-2.1479 h 3.5798 c -0.1885,0.8098 -0.5017,1.2282 -0.7159,2.1479 h 11.4555 c 0.5407,-2.3207 4.2958,-10.0478 4.2958,-12.41 0,-4.8035 -5.1287,-6.4437 -10.0236,-6.4437 -7.2781,0 -11.7506,3.6424 -12.4102,3.8186 0.9482,-1.7919 2.361,-3.8186 0.9547,-3.8186 h -19.8085 c -0.9276,0 -3.9942,7.357 -4.0573,8.1144 z" />
      <path
         inkscape:connector-curvature="0"
         id="path943"
         style="fill:#c50719;fill-rule:evenodd"
         d="m 316.267,389.6853 c 0.5815,0.8828 0.7329,0.2058 0.9767,1.7792 1.0089,0.0533 2.3788,0.2757 2.712,1.2899 0.009,0.0282 0.0262,0.0989 0.0366,0.1291 0.011,0.0319 0.0364,0.1003 0.0491,0.1339 l 0.1291,0.2824 c 0.2302,0.5748 0.1068,-0.1451 0.2319,0.6596 l -1.0122,1.2795 c 1.0131,0.5685 0.4567,-0.325 0.842,0.6514 -1.4286,1.8004 -2.781,0.714 -4.3057,2.6251 0.153,1.5174 1.7902,2.2672 3.0984,2.6395 1.5472,0.4406 14.7251,0.2244 16.9589,0.2244 l 3.5799,-7.6369 -14.5179,-0.0406 c -1.0866,-0.2179 -1.4829,-1.2112 -1.037,-2.122 0.4459,-0.9105 0.9231,-0.7752 0.9237,-0.774 l 10.5738,-0.1658 c 0.6501,-1.2284 3.5565,-7.065 3.5799,-8.1144 h -13.3729 c -2.4205,0.3267 -4.5571,1.0565 -6.2588,2.5634 -0.433,0.3833 -0.5815,0.606 -0.895,1.0142 -1.5565,2.0244 -0.9251,0.9902 -2.2925,3.5821 z" />
      <path
         inkscape:connector-curvature="0"
         id="path945"
         style="fill:#ffffff;fill-rule:evenodd"
         d="m 315.9265,398.5154 c 1.5247,-1.9111 2.8771,-0.8247 4.3057,-2.6251 -0.3853,-0.9764 0.1711,-0.0829 -0.842,-0.6514 l 1.0122,-1.2795 c -0.1251,-0.8047 -0.002,-0.0848 -0.2319,-0.6596 l -0.1291,-0.2824 c -0.0127,-0.0336 -0.0381,-0.102 -0.0491,-0.1339 -0.0104,-0.0302 -0.0273,-0.1009 -0.0366,-0.1291 -0.3332,-1.0142 -1.7031,-1.2366 -2.712,-1.2899 -0.2438,-1.5734 -0.3952,-0.8964 -0.9767,-1.7792 -1.5935,0 -0.5195,-0.0296 -1.1904,-0.4332 -2.4923,-1.4994 -2.6778,-0.9621 -4.366,-1.978 -1.7268,-1.0387 0.0488,-0.4428 -2.6071,-1.6887 -0.9237,-0.4335 -3.9359,-2.2618 -4.892,-2.3165 -1.4903,-0.0854 -0.6759,1.5557 -0.6399,1.6152 0.7217,1.1881 1.0458,0.0623 1.8432,1.0488 0.6867,0.8502 -0.1412,0.7893 1.3553,1.5089 1.8097,0.8705 0.6934,0.7924 1.7496,0.9125 1.5126,0.1719 0.614,-0.141 1.5848,1.0018 0.7633,0.8983 2.1222,0.3117 1.9737,1.8621 -0.1077,1.1204 -0.6808,0.8786 0.4854,2.8396 0.0268,0.0448 0.0654,0.1018 0.0916,0.1474 0.7129,1.2445 0.1446,0.8992 1.1788,1.4463 -1.3857,2.619 -0.1328,1.7618 -0.5584,3.4646 -0.0144,0.0578 -0.04,0.1212 -0.0544,0.1835 -0.0155,0.0668 -0.0324,0.1291 -0.0465,0.2002 -0.3814,1.9181 -0.6588,3.6094 1.1365,4.0274 0.4987,-0.942 0.5161,-1.9134 1.0531,-2.7655 0.3028,-0.4806 0.4567,-0.526 0.8031,-1.1066 0.5277,-0.8846 0.007,-0.5728 0.7591,-1.1397 z" />
      <path
         inkscape:connector-curvature="0"
         id="path947"
         style="fill:#ffffff;fill-rule:evenodd"
         d="m 310.6861,384.6735 h -1.1935 c 0.1536,0.5745 0.3735,1.017 1.0568,1.1131 0.9553,0.1345 0.367,-0.6779 0.1367,-1.1131 z" />
      <path
         inkscape:connector-curvature="0"
         id="path949"
         style="fill:#ffffff;fill-rule:evenodd"
         d="m 314.5047,403.766 c 0.1804,-0.3216 0.1302,-0.2639 0.2385,-0.716 h -0.716 c 0.1567,0.6543 -0.0967,0.3718 0.4775,0.716 z" />
      <path
         inkscape:connector-curvature="0"
         id="path951"
         style="fill:#3358f1;fill-rule:evenodd"
         d="m 368.054,390.5743 c 0.8465,0 2.5871,-0.1169 2.2869,0.6675 l -1.2208,3.1875 h -3.338 c 0.491,-1.2849 0.8868,-3.855 2.2719,-3.855 z" />
    </g>
  </g>
</svg>
