<?xml version="1.0" encoding="UTF-8" standalone="no"?>
<!-- Created with Inkscape (http://www.inkscape.org/) -->

<svg
   xmlns:dc="http://purl.org/dc/elements/1.1/"
   xmlns:cc="http://creativecommons.org/ns#"
   xmlns:rdf="http://www.w3.org/1999/02/22-rdf-syntax-ns#"
   xmlns:svg="http://www.w3.org/2000/svg"
   xmlns="http://www.w3.org/2000/svg"
   xmlns:sodipodi="http://sodipodi.sourceforge.net/DTD/sodipodi-0.dtd"
   xmlns:inkscape="http://www.inkscape.org/namespaces/inkscape"
   width="16.354504mm"
   height="4.9252982mm"
   viewBox="0 0 16.354503 4.9252983"
   version="1.1"
   id="svg1008"
   inkscape:version="0.92.3 (2405546, 2018-03-11)"
   sodipodi:docname="logo-ctera.svg">
  <defs
     id="defs1002" />
  <sodipodi:namedview
     id="base"
     pagecolor="#ffffff"
     bordercolor="#666666"
     borderopacity="1.0"
     inkscape:pageopacity="0.0"
     inkscape:pageshadow="2"
     inkscape:zoom="0.35"
     inkscape:cx="39.220074"
     inkscape:cy="22.359447"
     inkscape:document-units="mm"
     inkscape:current-layer="layer1"
     showgrid="false"
     fit-margin-top="0"
     fit-margin-left="0"
     fit-margin-right="0"
     fit-margin-bottom="0"
     inkscape:window-width="1920"
     inkscape:window-height="986"
     inkscape:window-x="-11"
     inkscape:window-y="-11"
     inkscape:window-maximized="1" />
  <metadata
     id="metadata1005">
    <rdf:RDF>
      <cc:Work
         rdf:about="">
        <dc:format>image/svg+xml</dc:format>
        <dc:type
           rdf:resource="http://purl.org/dc/dcmitype/StillImage" />
        <dc:title></dc:title>
      </cc:Work>
    </rdf:RDF>
  </metadata>
  <g
     inkscape:label="Capa 1"
     inkscape:groupmode="layer"
     id="layer1"
     transform="translate(66.69543,-149.82398)">
    <g
       transform="matrix(0.26458333,0,0,0.26458333,-129.70177,48.614081)"
       id="g1608">
      <path
         inkscape:connector-curvature="0"
         id="path925"
         style="fill:#ffffff;fill-rule:evenodd"
         d="m 250.7829,383.2416 c 0,1.1514 2.095,0.7159 4.2959,0.7159 h 25.059 c 2.7582,-8e-4 5.7277,-0.6973 5.7277,4.7731 0,1.455 -0.792,2.9916 -1.6704,3.5798 1.9382,2.8947 1.432,4.6116 1.432,8.8305 1.2642,-0.0282 1.1441,-0.2684 1.4204,-1.2048 0.2331,-0.7893 0.3422,-1.4004 0.5897,-2.2745 l 3.7176,-13.4653 h 0.716 c -0.0251,1.1185 -2.414,8.8078 -2.8639,10.7393 h 6.4438 c -0.5824,-2.4997 -2.9781,-9.2431 -3.1027,-10.7393 1.251,0.104 0.8372,0.3179 1.8232,3.6658 l 3.2896,11.0299 c 0.2517,0.8716 0.5403,1.3491 0.615,2.2489 h 1.6707 c -0.0228,-1.0255 -0.8975,-3.7251 -1.2231,-4.7435 l -4.0274,-13.8718 h -4.2959 c -0.6421,1.3383 -1.2555,4.0154 -1.7206,5.6776 -0.345,1.2324 -1.5325,4.7209 -1.6205,5.7779 l -1.4319,-1.9091 c 3.4223,-2.292 1.6554,-9.5464 -2.1479,-9.5464 h -32.6963 z" />
      <path
         inkscape:connector-curvature="0"
         id="path927"
         style="fill:#ffffff;fill-rule:evenodd"
         d="m 257.7042,401.1409 h 1.6704 v -14.5582 h 3.3414 v 14.5582 h 15.7514 v -6.9213 c 5.3024,0 4.5343,-0.7399 4.5343,6.9213 h 1.6707 c 0,-9.4954 0.5662,-8.353 -7.8757,-8.353 v 6.6823 h -12.4103 v -14.5579 h -6.6822 z" />
      <path
         inkscape:connector-curvature="0"
         id="path929"
         style="fill:#ffffff;fill-rule:evenodd"
         d="m 238.1342,391.5945 c 0,5.3681 2.9735,9.5464 8.5917,9.5464 3.2934,0 6.6588,-4.0075 6.9209,-7.1598 -0.5784,-0.1347 -0.9575,-0.2497 -1.4319,-0.4775 -0.7549,1.4266 -1.7203,5.7278 -6.205,5.7278 -6.5342,0 -8.5305,-10.6215 -2.9702,-14.1867 4.2152,-2.7029 8.6551,1.2581 8.9367,4.6406 1.0486,-0.0234 0.7433,-0.1615 1.6704,-0.2387 -0.0279,-1.2524 -0.5074,-2.0189 -0.9544,-2.8639 h 2.6251 v 14.5582 h 1.6707 v -16.2286 h -5.0118 c -0.9155,0 -1.8731,-2.3867 -4.5346,-2.3867 h -2.3252 c -1.9455,0.0719 -3.4987,0.5356 -5.1778,2.9978 -1.0943,1.6041 -1.8046,3.4854 -1.8046,6.0711 z" />
      <path
         inkscape:connector-curvature="0"
         id="path931"
         style="fill:#ffffff;fill-rule:evenodd"
         d="m 265.1024,385.6282 c 0,3.2143 -0.4789,5.2503 0.7159,5.2503 h 6.2053 v -1.4319 h -5.2505 v -2.8639 h 7.6369 v 10.5008 h -7.6369 v -3.5799 c 5.7049,0 5.2505,0.4178 5.2505,-1.4316 h -6.9212 v 5.7275 c 0,0.5499 0.1663,0.7159 0.7159,0.7159 h 9.5464 c 0.55,0 0.716,-0.166 0.716,-0.7159 v -12.8872 h -10.2624 c -0.5496,0 -0.7159,0.166 -0.7159,0.7159 z" />
      <path
         inkscape:connector-curvature="0"
         id="path933"
         style="fill:#ffffff;fill-rule:evenodd"
         d="m 276.7967,391.5945 c 7.2662,0 8.1144,0.9403 8.1144,-4.0571 0,-3.4801 -4.4083,-2.6251 -8.1144,-2.6251 z" />
      <path
         inkscape:connector-curvature="0"
         id="path935"
         style="fill:#ffffff;fill-rule:evenodd"
         d="m 251.0217,393.2652 c -0.5232,-0.2512 -0.939,-0.4164 -1.6707,-0.4773 -0.955,1.9901 -1.0926,3.1024 -3.5799,3.1024 -4.3127,0 -4.039,-8.5917 0.2388,-8.5917 0.772,0 1.7744,0.6405 2.2172,1.1242 0.6041,0.6604 0.9001,1.2557 1.1239,2.2172 l 1.6597,-0.5107 c -0.5347,-2.3097 -2.164,-4.7398 -5.0008,-4.7398 -7.6152,0 -6.0835,14.3484 1.1314,12.3649 2.0521,-0.5644 3.3674,-2.2866 3.8804,-4.4892 z" />
      <path
         inkscape:connector-curvature="0"
         id="path937"
         style="fill:#ffffff;fill-rule:evenodd"
         d="m 246.4871,394.9356 c 0.1844,0 2.3303,-1.1343 2.0679,-3.4902 -0.1004,-0.9004 -0.3504,-1.5304 -0.8231,-2.0507 -3.4294,-3.7752 -6.8508,5.5409 -1.2448,5.5409 z" />
      <path
         inkscape:connector-curvature="0"
         id="path939"
         style="fill:#ffffff;fill-rule:evenodd"
         d="m 287.5362,401.1409 h 1.6707 c 0.0781,-0.9384 0.4956,-3.5799 1.432,-3.5799 h 4.2958 c 0.0307,1.3758 0.6075,2.2762 0.716,3.5799 h 1.9091 c -0.3684,-0.7682 -0.5572,-1.7657 -0.8648,-2.7151 -1.0102,-3.1179 0.7067,-2.5355 -7.2496,-2.5355 -0.7244,0 -0.5849,0.2731 -0.7901,0.8803 z" />
    </g>
  </g>
</svg>
