<?xml version="1.0" encoding="UTF-8" standalone="no"?>
<!-- Created with Inkscape (http://www.inkscape.org/) -->

<svg
   xmlns:dc="http://purl.org/dc/elements/1.1/"
   xmlns:cc="http://creativecommons.org/ns#"
   xmlns:rdf="http://www.w3.org/1999/02/22-rdf-syntax-ns#"
   xmlns:svg="http://www.w3.org/2000/svg"
   xmlns="http://www.w3.org/2000/svg"
   xmlns:sodipodi="http://sodipodi.sourceforge.net/DTD/sodipodi-0.dtd"
   xmlns:inkscape="http://www.inkscape.org/namespaces/inkscape"
   width="49.765636mm"
   height="16.405781mm"
   viewBox="0 0 49.765636 16.405781"
   version="1.1"
   id="svg1008"
   inkscape:version="0.92.3 (2405546, 2018-03-11)"
   sodipodi:docname="logo-amsafe.svg">
  <defs
     id="defs1002" />
  <sodipodi:namedview
     id="base"
     pagecolor="#ffffff"
     bordercolor="#666666"
     borderopacity="1.0"
     inkscape:pageopacity="0.0"
     inkscape:pageshadow="2"
     inkscape:zoom="0.35"
     inkscape:cx="94.045299"
     inkscape:cy="31.003036"
     inkscape:document-units="mm"
     inkscape:current-layer="layer1"
     showgrid="false"
     fit-margin-top="0"
     fit-margin-left="0"
     fit-margin-right="0"
     fit-margin-bottom="0"
     inkscape:window-width="1920"
     inkscape:window-height="986"
     inkscape:window-x="-11"
     inkscape:window-y="-11"
     inkscape:window-maximized="1" />
  <metadata
     id="metadata1005">
    <rdf:RDF>
      <cc:Work
         rdf:about="">
        <dc:format>image/svg+xml</dc:format>
        <dc:type
           rdf:resource="http://purl.org/dc/dcmitype/StillImage" />
        <dc:title></dc:title>
      </cc:Work>
    </rdf:RDF>
  </metadata>
  <g
     inkscape:label="Capa 1"
     inkscape:groupmode="layer"
     id="layer1"
     transform="translate(81.201271,-140.63044)">
    <path
       d="m -76.994555,150.93326 h 1.320615 l -0.271516,-1.7718 c -0.13163,-0.89686 -0.222197,-1.58954 -0.271542,-2.07444 -0.04728,-0.4812 -0.07816,-0.93695 -0.09051,-1.36348 h -0.05347 c -0.01233,0.42653 -0.04114,0.88228 -0.09051,1.36348 -0.04728,0.4849 -0.137795,1.17758 -0.271515,2.07444 z m -4.206716,5.68736 3.147324,-15.64019 h 3.529939 l 3.085597,15.64019 h -3.410638 l -0.281781,-1.96869 h -2.392363 l -0.271594,1.96869 z m 17.893004,0 -0.386742,-6.19774 c -0.02466,-0.47397 -0.04728,-0.95154 -0.07197,-1.42549 -0.02466,-0.47392 -0.04321,-0.9479 -0.05964,-1.42547 -0.03707,0.44841 -0.0885,0.92236 -0.154305,1.42547 -0.0658,0.50313 -0.148113,1.03902 -0.244792,1.60777 l -1.012084,6.01546 h -1.884283 l -1.012085,-6.01546 c -0.100779,-0.56875 -0.183065,-1.10464 -0.248867,-1.60777 -0.06379,-0.50311 -0.113136,-0.97706 -0.150177,-1.42547 -0.01849,0.48487 -0.04117,0.96245 -0.06173,1.4328 -0.02262,0.47029 -0.04524,0.94419 -0.06996,1.41816 l -0.386682,6.19774 h -3.108219 l 1.505744,-15.64019 h 3.27279 l 0.625369,3.86811 c 0.02056,0.12033 0.05143,0.3026 0.09051,0.54321 0.26535,1.63328 0.427858,2.97492 0.489558,4.02857 h 0.0535 c 0.04731,-0.66357 0.119327,-1.36715 0.216006,-2.11455 0.09665,-0.74736 0.226272,-1.58953 0.386715,-2.52282 l 0.656193,-3.80252 h 3.266625 l 1.396765,15.64019 z m 2.759127,-1.33435 1.012085,-4.37854 c 0.454633,0.56147 0.859895,0.97346 1.21576,1.2323 0.355838,0.25881 0.687044,0.3901 0.997664,0.3901 0.215953,0 0.388779,-0.0729 0.512181,-0.21878 0.125492,-0.14579 0.187219,-0.34269 0.187219,-0.59426 0,-0.43383 -0.310621,-0.76194 -0.933926,-0.9916 -0.201586,-0.0766 -0.357902,-0.13856 -0.471038,-0.18233 -0.660347,-0.28434 -1.164299,-0.79113 -1.514052,-1.51661 -0.349673,-0.72547 -0.524536,-1.6296 -0.524536,-2.71243 0,-1.68064 0.339434,-3.04779 1.018249,-4.10144 0.678841,-1.0536 1.569588,-1.58224 2.670095,-1.58224 0.506016,0 1.00383,0.11666 1.493441,0.35367 0.491649,0.23328 0.985308,0.59058 1.483122,1.06815 l -0.962686,4.09416 c -0.30652,-0.401 -0.61095,-0.7036 -0.91948,-0.91508 -0.30652,-0.20778 -0.604838,-0.31351 -0.89281,-0.31351 -0.222171,0 -0.39288,0.0656 -0.512207,0.19688 -0.121391,0.13123 -0.181028,0.31718 -0.181028,0.55052 0,0.44111 0.440213,0.82753 1.318604,1.16297 0.139858,0.0583 0.248867,0.0984 0.324987,0.12758 0.606849,0.24429 1.086141,0.73642 1.435841,1.48381 0.3497,0.74737 0.524537,1.65151 0.524537,2.71243 0,1.73173 -0.351764,3.14262 -1.057328,4.23998 -0.705565,1.09738 -1.622981,1.64422 -2.752355,1.64422 -0.578009,0 -1.158108,-0.14581 -1.736116,-0.43751 -0.578062,-0.29165 -1.158161,-0.72909 -1.736223,-1.31244 z m 10.95248,-4.35301 h 1.320615 l -0.271542,-1.7718 c -0.131656,-0.89686 -0.22217,-1.58954 -0.271515,-2.07444 -0.04731,-0.4812 -0.07816,-0.93695 -0.09051,-1.36348 h -0.05347 c -0.01236,0.42653 -0.04114,0.88228 -0.09051,1.36348 -0.04733,0.4849 -0.137822,1.17758 -0.271516,2.07444 z m -4.206716,5.68736 3.147298,-15.64019 h 3.529965 l 3.085571,15.64019 h -3.410611 l -0.281782,-1.96869 h -2.392415 l -0.271542,1.96869 z m 9.831361,0 v -15.64019 h 5.899653 v 4.24363 h -2.727643 v 1.8156 h 2.468457 v 4.00298 h -2.468457 v 5.57798 z m 6.562672,0 v -15.64019 h 5.90169 v 4.24363 h -2.791433 v 1.50931 h 2.532247 v 4.00304 h -2.532247 v 1.64058 h 2.863453 v 4.24363 z"
       style="fill:#ffffff;fill-rule:evenodd;stroke-width:0.26458332"
       id="path953"
       inkscape:connector-curvature="0" />
  </g>
</svg>
